<svg xmlns="http://www.w3.org/2000/svg" width="204" height="40" viewBox="0 0 204 40" fill="none">
  <g fill="#17213B">
    <path d="M18.2 4.4 9.1 7.7 4.4 16.4l5.8 3.1 3.4-5.9 5.9-2.2-1.3-7Z"/>
    <path d="m35.6 18.2-3.3-9.1-8.7-4.7-3.1 5.8 5.9 3.4 2.2 5.9 7-1.3Z"/>
    <path d="m21.8 35.6 9.1-3.3 4.7-8.7-5.8-3.1-3.4 5.9-5.9 2.2 1.3 7Z"/>
    <path d="m4.4 21.8 3.3 9.1 8.7 4.7 3.1-5.8-5.9-3.4-2.2-5.9-7 1.3Z"/>
  </g>
  <path d="m20.5 10.2 5.9 3.4 2.2 5.9-5.9 2.1-4.3-4.3 2.1-7.1Z" fill="#5658C9"/>
  <path d="m10.2 19.5 3.4-5.9 5.9-2.2-1.1 5.9-4.8 4.3-3.4-2.1Z" fill="#FFFDF8"/>
  <text x="50" y="27" fill="#17213B" font-family="-apple-system,BlinkMacSystemFont,Segoe UI,sans-serif" font-size="22" font-weight="680" letter-spacing="-.6">Orchestratr</text>
</svg>
